<svg xmlns="http://www.w3.org/2000/svg" viewBox="0 0 448 512" fill="white">
  <path d="M224.1 141c-63.6 0-114.9 51.3-114.9 114.9S160.5 370.8 224.1 370.8 
           339 319.5 339 255.9 287.7 141 224.1 141zm146.4-41c0 14.9-12 26.9-26.9 
           26.9s-26.9-12-26.9-26.9 12-26.9 26.9-26.9 26.9 12 26.9 26.9zm76.1 
           27.2c-1.7-35.7-9.9-67.3-36.2-93.6S378.3 4.8 342.6 3.1C306.2 1.3 
           305.2 1 224 1S141.8 1.3 105.4 3.1c-35.7 1.7-67.3 9.9-93.6 
           36.2S4.8 105.7 3.1 141.4C1.3 177.8 1 178.8 1 260s.3 82.2 
           2.1 118.6c1.7 35.7 9.9 67.3 36.2 93.6s57.9 34.5 93.6 36.2c36.4 
           1.8 37.4 2.1 118.6 2.1s82.2-.3 118.6-2.1c35.7-1.7 67.3-9.9 
           93.6-36.2s34.5-57.9 36.2-93.6c1.8-36.4 2.1-37.4 2.1-118.6s-.3-82.2-2.1-118.6zM224 
           338c-46.7 0-84.6-37.9-84.6-84.6S177.3 169 224 169s84.6 
           37.9 84.6 84.6S270.7 338 224 338z"></path>
</svg>
